<svg xmlns="http://www.w3.org/2000/svg" viewBox="0 0 256 246"><defs><linearGradient id="a" x1="99.14%" x2="33.86%" y1="112.745%" y2="37.769%"><stop offset="0%" stop-color="#0052CC"/><stop offset="92.3%" stop-color="#2684FF"/></linearGradient><linearGradient id="b" x1=".86%" x2="66.14%" y1="-12.745%" y2="62.231%"><stop offset="0%" stop-color="#0052CC"/><stop offset="92.3%" stop-color="#2684FF"/></linearGradient></defs><path fill="url(#a)" d="M9.26 187.28c-3.627 5.985-7.653 12.769-10.48 17.554a8.204 8.204 0 0 0 2.958 11.2l56.17 33.72a8.172 8.172 0 0 0 11.212-2.878c2.547-4.386 5.893-10.37 9.64-17.035 26.31-46.827 52.62-41.162 100.447-18.442l56.728 26.95a8.168 8.168 0 0 0 10.802-4.066l26.23-56.727a8.174 8.174 0 0 0-3.987-10.882c-14.89-7.093-44.592-21.16-68.222-32.361C132.377 101.37 55.06 103.137 9.26 187.28z"/><path fill="url(#b)" d="M246.115 58.392c3.627-5.985 7.653-12.769 10.48-17.554a8.204 8.204 0 0 0-2.958-11.2L197.468-.082a8.172 8.172 0 0 0-11.213 2.878c-2.547 4.386-5.893 10.37-9.64 17.035-26.31 46.827-52.62 41.162-100.446 18.442L19.96 11.163a8.168 8.168 0 0 0-10.803 4.066L-17.073 71.96a8.174 8.174 0 0 0 3.987 10.882c14.89 7.093 44.592 21.16 68.222 32.361 68.382 32.962 145.699 31.196 190.98-56.81z"/></svg>
