<svg xmlns="http://www.w3.org/2000/svg" viewBox="0 0 200 200"><path d="M45.007 108.297c.032-.053.073-.113.106-.166 5.434-8.478 13.39-15.576 22.122-21.565L27.48 45.007c-.63-.63-1.67-.18-1.66.697.244 22.023 3.057 44.943 19.187 62.593z" fill="#00D6B9"/><path d="M67.235 86.566c19.31-13.247 43.326-22.353 69.133-22.908a136.09 136.09 0 0 0-18.08-22.255C100.22 22.578 79.27 14.81 64.22 11.457c-1.103-.244-2.004.89-1.407 1.87l4.423 7.264c.016.024.033.057.049.081L67.235 86.566z" fill="#3370FF"/><path d="M136.368 63.658c-25.807.555-49.823 9.66-69.133 22.908-8.732 5.988-16.688 13.087-22.122 21.565-.033.053-.074.113-.106.166-.697 1.137-1.31 2.266-1.86 3.387a28.18 28.18 0 0 0-1.137 2.657c-3.592 9.718-2.315 19.77 3.445 31.55l.025.05c1.275 2.6 4.422 8.527 8.422 15.592 5.266 9.29 11.881 20.617 18.17 30.905.58.951 1.956.68 2.129-.39.885-5.402 2.006-14.277 2.006-25.1 0-27.73 12.936-53.024 40.666-66.555 10.023-4.886 20.52-8.12 30.627-10.165a143.855 143.855 0 0 0-11.132-26.57z" fill="#00D6B9"/><path d="M117.706 100.348c-27.73 13.531-40.666 38.826-40.666 66.555 0 10.823-1.121 19.698-2.006 25.1-.173 1.071 1.55 1.342 2.129.39.441-.722.901-1.477 1.365-2.24 13.603-17.636 39.948-37.04 95.076-40.625.927-.058 1.35-1.162.666-1.78-8.445-7.688-22.467-18.83-37.83-30.286-7.442-5.553-13.221-11.339-18.734-17.114z" fill="#3370FF"/><path d="M117.706 100.348c5.513 5.775 11.292 11.56 18.734 17.114 15.363 11.455 29.385 22.597 37.83 30.286.684.618 1.683.041 1.682-.62-.032-18.155-2.706-47.456-27.324-56.945-10.108 2.046-20.604 5.28-30.627 10.165h-.295z" fill="#00D6B9"/></svg>
