<svg xmlns="http://www.w3.org/2000/svg" viewBox="0 0 380 380"><path fill="#e24329" d="m189.99 362.81-68.47-210.79h136.94z"/><path fill="#fc6d26" d="M189.99 362.81 121.52 152.02H19.8z"/><path fill="#fca326" d="M19.8 152.02 2.58 204.97a13.2 13.2 0 0 0 4.79 14.75l182.62 132.69z"/><path fill="#e24329" d="M19.8 152.02h101.72L76.37 19.09c-2.39-7.34-12.81-7.34-15.19 0z"/><path fill="#fc6d26" d="m189.99 362.81 68.47-210.79h101.72z"/><path fill="#fca326" d="m360.18 152.02 17.22 52.95a13.2 13.2 0 0 1-4.79 14.75L189.99 352.41z"/><path fill="#e24329" d="M360.18 152.02H258.46l45.15-132.93c2.39-7.34 12.81-7.34 15.19 0z"/></svg>
