<svg xmlns="http://www.w3.org/2000/svg" viewBox="12 0.18999999999999906 100 100" fill="none"><path d="M25.723 14.16l52.729-3.89c6.49-.55 8.146-.18 12.219 2.747l16.837 11.86c2.749 1.96 3.659 2.471 3.659 4.614v65.126c0 3.841-1.456 6.129-6.492 6.494l-61.24 3.66c-3.66.181-5.406-.365-7.335-2.744l-11.895-15.517c-2.2-2.929-3.11-5.13-3.11-7.692V20.466c0-3.295 1.465-5.803 4.628-6.307z" fill="#fff"/><path fill-rule="evenodd" clip-rule="evenodd" d="M78.452 10.27L25.723 14.16c-3.163.504-4.628 3.012-4.628 6.307V81.07c0 2.563.91 4.763 3.11 7.692l11.895 15.517c1.929 2.38 3.675 2.925 7.335 2.745l61.24-3.661c5.036-.365 6.492-2.653 6.492-6.494V29.491c0-2.04-.795-2.595-3.259-4.327l-.137-.096-16.837-11.86c-4.073-2.928-5.729-3.298-12.219-2.748zM38.084 31.846c-5.062.333-6.218.41-9.099-1.804l-7.877-6.137c-.728-.727-.364-1.636 1.466-1.818l50.362-3.659c4.566-.365 6.862 1.1 8.681 2.564l9.607 6.95c.546.362.91 1.272.182 1.272l-52.049 3.087-.547.03-.726.515zM33.42 93.013V40.263c0-2.564.727-3.66 3.295-3.842l56.86-3.295c2.381-.182 3.66 1.282 3.66 3.841v52.384c0 2.564-.454 4.708-3.565 4.89l-54.303 3.116c-3.109.182-4.392-.91-5.947-2.929v-.365zm53.734-49.084c.363 1.645 0 3.294-1.65 3.476l-2.566.545v38.696c-2.2 1.282-4.391 1.827-6.127 1.827-2.93 0-3.659-.91-5.862-3.657l-17.926-28.18v27.27l5.498 1.282s0 3.295-4.57 3.295l-12.588.727c-.363-.727 0-2.564 1.283-2.928l3.295-.91V50.416l-4.567-.363c-.364-1.645.546-4.027 3.11-4.209l13.497-.91 18.654 28.544V47.672l-4.567-.546c-.365-1.826 1.1-3.111 2.743-3.293l12.743-.904z" fill="#000"/></svg>
