<svg xmlns="http://www.w3.org/2000/svg" viewBox="0 0 64 64" fill="none">
  <!-- Shield body -->
  <path d="M32 4L6 16v16c0 14.4 11.1 27.8 26 30 14.9-2.2 26-15.6 26-30V16L32 4z" fill="#1a1a2e"/>
  <!-- Shield inner gradient -->
  <path d="M32 8L10 18.5v13.5c0 12.6 9.4 24.2 22 26.2 12.6-2 22-13.6 22-26.2V18.5L32 8z" fill="#16213e"/>
  <!-- Tower left -->
  <rect x="18" y="24" width="5" height="18" rx="1" fill="#e94560"/>
  <!-- Tower right -->
  <rect x="41" y="24" width="5" height="18" rx="1" fill="#e94560"/>
  <!-- Tower center (tall) -->
  <rect x="27" y="18" width="10" height="24" rx="1" fill="#e94560"/>
  <!-- Battlements left -->
  <rect x="18" y="22" width="2" height="4" fill="#e94560"/>
  <rect x="21" y="22" width="2" height="4" fill="#e94560"/>
  <!-- Battlements right -->
  <rect x="41" y="22" width="2" height="4" fill="#e94560"/>
  <rect x="44" y="22" width="2" height="4" fill="#e94560"/>
  <!-- Battlements center -->
  <rect x="27" y="16" width="2.5" height="4" fill="#e94560"/>
  <rect x="30.75" y="16" width="2.5" height="4" fill="#e94560"/>
  <rect x="34.5" y="16" width="2.5" height="4" fill="#e94560"/>
  <!-- Code brackets < > -->
  <path d="M24 35l-4 3 4 3" stroke="#0f3460" stroke-width="2" stroke-linecap="round" stroke-linejoin="round"/>
  <path d="M40 35l4 3-4 3" stroke="#0f3460" stroke-width="2" stroke-linecap="round" stroke-linejoin="round"/>
  <!-- AI sparkle dots -->
  <circle cx="32" cy="38" r="1.5" fill="#53d8fb"/>
  <circle cx="29" cy="36" r="1" fill="#53d8fb" opacity="0.7"/>
  <circle cx="35" cy="36" r="1" fill="#53d8fb" opacity="0.7"/>
</svg>
